<?xml version="1.0" encoding="utf-8"?>
<!-- Generator: Adobe Illustrator 27.7.0, SVG Export Plug-In . SVG Version: 6.00 Build 0)  -->
<svg version="1.1" id="Capa_1" xmlns="http://www.w3.org/2000/svg" xmlns:xlink="http://www.w3.org/1999/xlink" x="0px" y="0px"
	 viewBox="0 0 304.5 150.8" style="enable-background:new 0 0 304.5 150.8;" xml:space="preserve">
<style type="text/css">
	.st0{fill:#FFFFFF;}
</style>
<g>
	<g>
		<g>
			<line class="st0" x1="216.2" y1="46.9" x2="216.2" y2="104.9"/>
			<rect x="215.5" y="46.9" class="st0" width="1.5" height="58"/>
		</g>
		<g>
			<g>
				<path class="st0" d="M237.2,100.2h-7.9l-1.7,3.9h-0.9l6.1-13.5h0.9l6.2,13.5H239L237.2,100.2z M236.9,99.4l-3.6-7.9l-3.6,7.9
					H236.9z"/>
				<path class="st0" d="M249.9,97.9v6.2h-0.8v-6c0-2.1-1.2-3.3-3.3-3.3c-2.3,0.1-3.8,1.5-3.9,3.8v5.5h-0.8V93.9h0.8v2.6
					c0.7-1.7,2.1-2.6,4.1-2.6C248.5,93.9,249.9,95.4,249.9,97.9z M243.7,91.7H243c0-1.1,0.5-1.8,1.4-1.8c1.1,0,1.5,1.3,2.4,1.3
					c0.6,0,0.9-0.4,0.9-1.1h0.6c0,1.1-0.5,1.8-1.4,1.8c-1.1,0-1.5-1.3-2.4-1.3C244,90.6,243.7,91,243.7,91.7z"/>
				<path class="st0" d="M261.5,99c0,3-2.1,5.1-5,5.1c-2.9,0-5-2.1-5-5.1c0-3,2.1-5.1,5-5.1C259.4,93.9,261.5,96,261.5,99z
					 M252.4,99c0,2.6,1.8,4.3,4.2,4.3c2.4,0,4.2-1.8,4.2-4.3c0-2.5-1.7-4.3-4.2-4.3C254.1,94.7,252.4,96.5,252.4,99z"/>
				<path class="st0" d="M265.9,94.7c-1.4,0-2.5,0.5-2.5,1.7c0,2.7,5.9,1.4,5.9,4.9c0,1.9-1.7,2.7-3.5,2.7c-1.4,0-2.8-0.5-3.7-1.4
					l0.4-0.6c0.9,0.8,2.1,1.3,3.4,1.3c1.4,0,2.6-0.6,2.7-1.8c0.1-2.8-5.9-1.5-5.9-5c0-1.8,1.5-2.5,3.3-2.5c1.1,0,2.1,0.3,2.9,0.8
					l-0.3,0.7C267.7,94.9,266.8,94.7,265.9,94.7z"/>
			</g>
			<g>
				<path class="st0" d="M256.8,47.3c-3,0-5.5,1-7.4,3c0.6,0.9,1,1.9,1.3,2.9c0.2,0.5,0.3,1,0.4,1.5c0,0.2,0.1,0.4,0.1,0.6l0.1,0.2
					l0,2.3l-0.1,0.2c-0.1,0.3-0.1,0.5-0.2,0.8c-0.1,0.6-0.2,1.2-0.5,1.8c-0.8,2.4-2.2,4.5-4.2,6.3c2.4,2.4,3.8,4.8,4.5,7.3
					c0.1,0.4,0.2,0.7,0.2,1.1c0,0.1,0.1,0.3,0.1,0.4l0,0.2v2.4l-0.1,0.5c0,0.1-0.1,0.3-0.1,0.4c-0.3,1.6-0.9,3.1-1.8,4.5
					c1.9,2,4.5,3.1,7.5,3.1c7.8,0,12.2-7.1,12.2-19.8C269,54.3,264.6,47.3,256.8,47.3z M256.8,81.1c-4.2,0-6.2-4.4-6.2-14
					c0-9.6,2-14,6.2-14c4.1,0,6.1,4.3,6.1,14C262.9,76.7,260.9,81.1,256.8,81.1z"/>
			</g>
			<g>
				<path class="st0" d="M249.2,55.7c-0.2-0.6-0.3-1.3-0.4-1.9c-1.4-4.5-5.8-7.5-11-7.4c-4.8,0.1-9.1,3.4-10.2,7.8
					c-0.8,3.1,0,5.9,1.8,8.5c0.6,0.9,1.4,1.8,2.2,2.6l0.4,0.4c0.2,0.2,0.5,0.3,0.8,0.1l3.9-2.8c0.3-0.2,0.3-0.6,0.1-0.8
					c-0.7-0.7-1.4-1.5-2-2.2c-0.8-1-1.4-2.2-1.4-3.6c0-2.3,2.1-4.3,4.6-4.5c2.6-0.2,4.9,1.6,5.2,3.9c0.3,1.7-0.3,3.1-1.4,4.4
					c-1.1,1.3-2.6,2.4-4,3.4c-1.8,1.3-3.6,2.6-5.4,4c-2,1.5-3.5,3.4-4.4,5.7c-1.7,4.6-0.1,9.4,3.9,12.1c6.6,4.4,15.8,0.8,17.2-6.6
					c0-0.2,0.1-0.5,0.2-0.7v-1.9c-0.1-0.5-0.2-1-0.3-1.4c-0.7-2.6-2.2-4.7-4.2-6.6l-0.2-0.2c-0.2-0.2-0.5-0.2-0.7-0.1
					c-1.4,1-2.7,1.9-4,2.9c-0.2,0.2-0.2,0.4,0,0.6l0,0c1,0.9,2,1.9,2.7,3.1c0.6,1,1,2.1,0.8,3.3c-0.4,2.4-2.6,4.1-5.2,3.9
					c-2.5-0.1-4.6-2.1-4.6-4.5c0-1.6,0.7-3,1.8-4.2c1.1-1.2,2.5-2.2,3.8-3.2c1.9-1.4,3.8-2.7,5.6-4.1c2-1.6,3.4-3.5,4.2-5.9
					c0.3-0.8,0.4-1.6,0.6-2.5C249.2,56.9,249.2,56.3,249.2,55.7z"/>
			</g>
		</g>
	</g>
	<g>
		<g>
			<g>
				<path class="st0" d="M43.9,130.6l-1.4-2.2c-0.1,0-0.3,0-0.4,0h-1.8v2.2h-0.8v-6.8H42c1.7,0,2.7,0.8,2.7,2.3
					c0,1.1-0.6,1.9-1.5,2.2l1.6,2.3H43.9z M42,127.7c1.2,0,1.9-0.6,1.9-1.6c0-1-0.7-1.6-1.9-1.6h-1.8v3.2H42z"/>
				<path class="st0" d="M51.8,128.3h-4.2c0.1,1,0.9,1.7,1.9,1.7c0.6,0,1.2-0.2,1.6-0.7l0.4,0.4c-0.5,0.5-1.2,0.8-2.1,0.8
					c-1.5,0-2.6-1.1-2.6-2.6c0-1.5,1.1-2.6,2.5-2.6C51.1,125.4,51.9,126.5,51.8,128.3z M51.1,127.7c0-1-0.7-1.6-1.7-1.6
					c-1,0-1.7,0.6-1.8,1.6H51.1z"/>
				<path class="st0" d="M57.3,130.6v-0.8c-0.4,0.6-1.1,0.8-1.9,0.8c-1.1,0-1.7-0.7-1.7-1.6c0-0.9,0.7-1.5,1.9-1.5h1.7v-0.3
					c0-0.8-0.5-1.2-1.4-1.2c-0.6,0-1.1,0.2-1.6,0.6l-0.3-0.5c0.7-0.4,1.2-0.7,2.1-0.7c1.3,0,2,0.7,2,1.8l0,3.4H57.3z M57.3,128.8
					v-0.6h-1.6c-0.9,0-1.3,0.3-1.3,0.8c0,0.6,0.5,0.9,1.2,0.9C56.4,130,57.1,129.5,57.3,128.8z"/>
				<path class="st0" d="M62.8,126.1c-1.1,0-1.8,0.8-1.8,1.9c0,1.1,0.8,1.9,1.8,1.9c0.7,0,1.2-0.2,1.6-0.7l0.4,0.4
					c-0.5,0.6-1.2,0.9-2.1,0.9c-1.5,0-2.5-1.1-2.5-2.6c0-1.5,1.1-2.6,2.5-2.6c0.8,0,1.5,0.3,2,0.8l-0.4,0.5
					C63.9,126.3,63.4,126.1,62.8,126.1z"/>
				<path class="st0" d="M69.8,125.4v0.7c-1.1,0-1.8,0.7-1.8,1.7v2.7h-0.8v-5.1h0.8v1.1C68.3,125.8,68.9,125.4,69.8,125.4z"/>
				<path class="st0" d="M76.2,128.3H72c0.1,1,0.9,1.7,1.9,1.7c0.6,0,1.2-0.2,1.6-0.7l0.4,0.4c-0.5,0.5-1.2,0.8-2.1,0.8
					c-1.5,0-2.6-1.1-2.6-2.6c0-1.5,1.1-2.6,2.5-2.6C75.5,125.4,76.3,126.5,76.2,128.3z M75.5,127.7c0-1-0.7-1.6-1.7-1.6
					c-1,0-1.7,0.6-1.8,1.6H75.5z"/>
				<path class="st0" d="M83.2,123.3v7.2h-0.8v-1.1c-0.4,0.7-1.1,1.1-2,1.1c-1.5,0-2.5-1.1-2.5-2.6c0-1.5,1-2.6,2.5-2.6
					c0.9,0,1.6,0.4,2,1.2v-3.2H83.2z M82.5,128c0-1.1-0.8-2-1.9-2c-1.1,0-1.9,0.8-1.9,2c0,1.1,0.8,1.9,1.9,1.9
					C81.7,130,82.5,129.1,82.5,128z"/>
				<path class="st0" d="M87,124c0,0.3-0.2,0.5-0.5,0.5S86,124.3,86,124c0-0.3,0.2-0.5,0.5-0.5S87,123.7,87,124z M86.9,125.4v5.1
					h-0.8v-5.1H86.9z"/>
				<path class="st0" d="M92.3,130.2c-0.4,0.2-0.8,0.4-1.2,0.4c-0.8,0-1.3-0.4-1.3-1.5v-3h-0.7v-0.6h0.7v-1.3h0.8v1.3h1.6v0.6h-1.6
					v2.8c0,0.6,0.2,0.9,0.7,0.9c0.3,0,0.5-0.1,0.8-0.3L92.3,130.2z"/>
				<path class="st0" d="M97.7,130.6v-0.8c-0.4,0.6-1.1,0.8-1.9,0.8c-1.1,0-1.7-0.7-1.7-1.6c0-0.9,0.7-1.5,1.9-1.5h1.7v-0.3
					c0-0.8-0.5-1.2-1.4-1.2c-0.6,0-1.1,0.2-1.6,0.6l-0.3-0.5c0.7-0.4,1.2-0.7,2.1-0.7c1.3,0,2,0.7,2,1.8l0,3.4H97.7z M97.7,128.8
					v-0.6h-1.6c-0.9,0-1.3,0.3-1.3,0.8c0,0.6,0.5,0.9,1.2,0.9C96.8,130,97.5,129.5,97.7,128.8z"/>
				<path class="st0" d="M105.8,123.3v7.2H105v-1.1c-0.4,0.7-1.1,1.1-2,1.1c-1.5,0-2.5-1.1-2.5-2.6c0-1.5,1-2.6,2.5-2.6
					c0.9,0,1.6,0.4,2,1.2v-3.2H105.8z M105,128c0-1.1-0.8-2-1.9-2c-1.1,0-1.9,0.8-1.9,2c0,1.1,0.8,1.9,1.9,1.9
					C104.3,130,105,129.1,105,128z"/>
				<path class="st0" d="M111.9,130.6v-0.8c-0.4,0.6-1.1,0.8-1.9,0.8c-1.1,0-1.7-0.7-1.7-1.6c0-0.9,0.7-1.5,1.9-1.5h1.7v-0.3
					c0-0.8-0.5-1.2-1.4-1.2c-0.6,0-1.1,0.2-1.6,0.6l-0.3-0.5c0.7-0.4,1.2-0.7,2.1-0.7c1.3,0,2,0.7,2,1.8l0,3.4H111.9z M111.9,128.8
					v-0.6h-1.6c-0.9,0-1.3,0.3-1.3,0.8c0,0.6,0.5,0.9,1.2,0.9C111,130,111.7,129.5,111.9,128.8z"/>
				<path class="st0" d="M123.6,128.3h-4.2c0.1,1,0.9,1.7,1.9,1.7c0.6,0,1.2-0.2,1.6-0.7l0.4,0.4c-0.5,0.5-1.2,0.8-2.1,0.8
					c-1.5,0-2.6-1.1-2.6-2.6c0-1.5,1.1-2.6,2.5-2.6C122.9,125.4,123.7,126.5,123.6,128.3z M123,127.7c0-1-0.7-1.6-1.7-1.6
					c-1,0-1.7,0.6-1.8,1.6H123z"/>
				<path class="st0" d="M130.6,127.4v3.2h-0.8v-3c0-0.9-0.5-1.5-1.5-1.5c-1,0-1.6,0.7-1.7,1.7v2.8h-0.8v-5.1h0.8v1.1
					c0.4-0.8,1.1-1.2,2-1.2C129.9,125.4,130.6,126.2,130.6,127.4z"/>
				<path class="st0" d="M141.6,128.8h-3.7l-0.8,1.7h-0.8l3.1-6.8h0.8l3.1,6.8h-0.8L141.6,128.8z M141.3,128.1l-1.6-3.5l-1.5,3.5
					H141.3z"/>
				<path class="st0" d="M146,123.3v7.2h-0.8v-7.2H146z"/>
				<path class="st0" d="M151.6,130.2c-0.4,0.2-0.8,0.4-1.2,0.4c-0.8,0-1.3-0.4-1.3-1.5v-3h-0.7v-0.6h0.7v-1.3h0.8v1.3h1.6v0.6h-1.6
					v2.8c0,0.6,0.2,0.9,0.7,0.9c0.3,0,0.5-0.1,0.8-0.3L151.6,130.2z"/>
				<path class="st0" d="M156.9,130.6v-0.8c-0.4,0.6-1.1,0.8-1.9,0.8c-1.1,0-1.7-0.7-1.7-1.6c0-0.9,0.7-1.5,1.9-1.5h1.7v-0.3
					c0-0.8-0.5-1.2-1.4-1.2c-0.6,0-1.1,0.2-1.6,0.6l-0.3-0.5c0.7-0.4,1.2-0.7,2.1-0.7c1.3,0,2,0.7,2,1.8l0,3.4H156.9z M156.9,128.8
					v-0.6h-1.6c-0.9,0-1.3,0.3-1.3,0.8c0,0.6,0.5,0.9,1.2,0.9C156,130,156.7,129.5,156.9,128.8z"/>
				<path class="st0" d="M167.2,124.4c-1.5,0-2.8,1.2-2.8,2.7c0,1.5,1.2,2.7,2.8,2.7c0.8,0,1.5-0.3,2-0.8l0.5,0.5
					c-0.7,0.6-1.6,1-2.5,1c-2,0-3.5-1.5-3.5-3.5c0-1.9,1.6-3.4,3.6-3.4c0.9,0,1.8,0.4,2.5,1l-0.5,0.6
					C168.7,124.7,168,124.4,167.2,124.4z"/>
				<path class="st0" d="M175.2,130.6v-0.8c-0.4,0.6-1.1,0.8-1.9,0.8c-1.1,0-1.7-0.7-1.7-1.6c0-0.9,0.7-1.5,1.9-1.5h1.7v-0.3
					c0-0.8-0.5-1.2-1.4-1.2c-0.6,0-1.1,0.2-1.6,0.6l-0.3-0.5c0.7-0.4,1.2-0.7,2.1-0.7c1.3,0,2,0.7,2,1.8l0,3.4H175.2z M175.2,128.8
					v-0.6h-1.6c-0.9,0-1.3,0.3-1.3,0.8c0,0.6,0.5,0.9,1.2,0.9C174.3,130,175,129.5,175.2,128.8z"/>
				<path class="st0" d="M179.4,123.3v7.2h-0.8v-7.2H179.4z"/>
				<path class="st0" d="M183.2,124c0,0.3-0.2,0.5-0.5,0.5s-0.5-0.2-0.5-0.5c0-0.3,0.2-0.5,0.5-0.5S183.2,123.7,183.2,124z
					 M183.1,125.4v5.1h-0.8v-5.1H183.1z"/>
				<path class="st0" d="M190.6,123.3v7.2h-0.8v-1.1c-0.4,0.7-1.1,1.1-2,1.1c-1.5,0-2.5-1.1-2.5-2.6c0-1.5,1-2.6,2.5-2.6
					c0.9,0,1.6,0.4,2,1.2v-3.2H190.6z M189.9,128c0-1.1-0.8-2-1.9-2c-1.1,0-1.9,0.8-1.9,2c0,1.1,0.8,1.9,1.9,1.9
					C189.1,130,189.9,129.1,189.9,128z"/>
				<path class="st0" d="M196.7,130.6v-0.8c-0.4,0.6-1.1,0.8-1.9,0.8c-1.1,0-1.7-0.7-1.7-1.6c0-0.9,0.7-1.5,1.9-1.5h1.7v-0.3
					c0-0.8-0.5-1.2-1.4-1.2c-0.6,0-1.1,0.2-1.6,0.6l-0.3-0.5c0.7-0.4,1.2-0.7,2.1-0.7c1.3,0,2,0.7,2,1.8l0,3.4H196.7z M196.7,128.8
					v-0.6h-1.6c-0.9,0-1.3,0.3-1.3,0.8c0,0.6,0.5,0.9,1.2,0.9C195.8,130,196.5,129.5,196.7,128.8z"/>
				<path class="st0" d="M204.8,123.3v7.2h-0.8v-1.1c-0.4,0.7-1.1,1.1-2,1.1c-1.5,0-2.5-1.1-2.5-2.6c0-1.5,1-2.6,2.5-2.6
					c0.9,0,1.6,0.4,2,1.2v-3.2H204.8z M204.1,128c0-1.1-0.8-2-1.9-2c-1.1,0-1.9,0.8-1.9,2c0,1.1,0.8,1.9,1.9,1.9
					C203.3,130,204.1,129.1,204.1,128z"/>
			</g>
			<g>
				<path class="st0" d="M46.8,113.2c2.1,0,3.6-1.5,3.6-3.9V98.5h4.8v10.8c0,4.9-3.2,8-8.3,8c-5.1,0-8.4-3.1-8.4-8V98.5h4.8v10.8
					C43.1,111.7,44.7,113.2,46.8,113.2z"/>
				<path class="st0" d="M72.8,108.1v9.1h-4.6v-7.7c0-1.6-0.9-2.6-2.4-2.6c-1.6,0-2.6,1.1-2.8,2.7v7.6h-4.6v-14.4H63v2.3
					c1-1.7,2.6-2.5,4.7-2.5C70.7,102.6,72.8,104.7,72.8,108.1z"/>
				<path class="st0" d="M80.5,102.8v14.4h-4.6v-14.4H80.5z M80.3,98.7c0,1.3-0.9,2.2-2.1,2.2c-1.2,0-2.1-0.9-2.1-2.2
					c0-1.3,0.9-2.2,2.1-2.2C79.4,96.5,80.3,97.4,80.3,98.7z"/>
				<path class="st0" d="M86.9,102.8l2.9,10l3-10h4.6l-5.3,14.4h-4.8l-5.3-14.4H86.9z"/>
				<path class="st0" d="M111.8,111.2h-9.8c0.4,1.6,1.6,2.5,3.2,2.5c1.2,0,2.4-0.5,3.3-1.5l2.4,2.5c-1.4,1.7-3.5,2.6-6.1,2.6
					c-4.6,0-7.4-2.9-7.4-7.3c0-4.5,2.9-7.4,7.3-7.4C109.7,102.6,112.1,106,111.8,111.2z M107.4,108.7c0-1.7-1-2.8-2.6-2.8
					c-1.5,0-2.5,1.1-2.8,2.8H107.4z"/>
				<path class="st0" d="M123.4,102.6v4.3c-2.6-0.3-4.3,0.9-4.5,2.9v7.4h-4.6v-14.4h4.6v2.4C119.8,103.5,121.4,102.6,123.4,102.6z"
					/>
				<path class="st0" d="M130.3,105.8c-0.8,0-1.3,0.3-1.3,0.9c0,1.9,7.4,1,7.4,6c0,3-2.5,4.6-6,4.6c-2.4,0-4.6-0.7-6.3-2.1l1.5-3.1
					c1.6,1.1,3.4,1.8,5,1.8c0.9,0,1.5-0.3,1.5-0.9c0-2-7.3-1-7.3-6c0-3,2.5-4.7,5.8-4.7c2,0,4.1,0.6,5.8,1.7l-1.6,3.1
					C133.1,106.4,131.5,105.8,130.3,105.8z"/>
				<path class="st0" d="M143.5,102.8v14.4h-4.6v-14.4H143.5z M143.3,98.7c0,1.3-0.9,2.2-2.1,2.2c-1.2,0-2.1-0.9-2.1-2.2
					c0-1.3,0.9-2.2,2.1-2.2C142.4,96.5,143.3,97.4,143.3,98.7z"/>
				<path class="st0" d="M156.1,116.4c-1,0.6-2.4,1-3.8,1c-2.7,0-4.7-1.6-4.7-4.6v-6.2h-1.9v-3.1h1.9v-4h4.6v4h3.6v3.1h-3.6v5.4
					c0,1.1,0.5,1.5,1.3,1.5c0.5,0,1.1-0.2,1.7-0.5L156.1,116.4z"/>
				<path class="st0" d="M170.9,107.8v9.4h-4.5v-1.6c-0.9,1.2-2.3,1.8-4.2,1.8c-3,0-4.8-1.9-4.8-4.5c0-2.7,1.9-4.3,5.4-4.4h3.7v-0.2
					c0-1.4-0.9-2.2-2.7-2.2c-1.2,0-2.7,0.4-4.2,1.1l-1.3-3.2c2.2-1,4.2-1.6,6.6-1.6C168.6,102.6,170.8,104.5,170.9,107.8z
					 M166.3,112.3V111h-2.8c-1.3,0-1.9,0.5-1.9,1.5c0,1,0.7,1.6,1.9,1.6C164.9,114.2,166,113.4,166.3,112.3z"/>
				<path class="st0" d="M183.1,102.6v4.3c-2.6-0.3-4.3,0.9-4.5,2.9v7.4H174v-14.4h4.6v2.4C179.6,103.5,181.2,102.6,183.1,102.6z"/>
				<path class="st0" d="M189.8,102.8v14.4h-4.6v-14.4H189.8z M189.6,98.7c0,1.3-0.9,2.2-2.1,2.2c-1.2,0-2.1-0.9-2.1-2.2
					c0-1.3,0.9-2.2,2.1-2.2C188.7,96.5,189.6,97.4,189.6,98.7z"/>
				<path class="st0" d="M205.8,107.8v9.4h-4.5v-1.6c-0.9,1.2-2.3,1.8-4.2,1.8c-3,0-4.8-1.9-4.8-4.5c0-2.7,1.9-4.3,5.4-4.4h3.7v-0.2
					c0-1.4-0.9-2.2-2.7-2.2c-1.2,0-2.7,0.4-4.2,1.1l-1.3-3.2c2.2-1,4.2-1.6,6.6-1.6C203.5,102.6,205.8,104.5,205.8,107.8z
					 M201.2,112.3V111h-2.8c-1.3,0-1.9,0.5-1.9,1.5c0,1,0.7,1.6,1.9,1.6C199.8,114.2,201,113.4,201.2,112.3z"/>
			</g>
			<g>
				<g>
					<path class="st0" d="M40.8,83.3v10.5h-1.2V83.3H40.8z"/>
					<path class="st0" d="M60,88.9v4.9h-1.2v-4.6c0-1.4-0.8-2.3-2.2-2.3c-1.6,0-2.5,1-2.7,2.6v4.2h-1.2v-7.9H54v1.7
						c0.6-1.2,1.6-1.8,3.1-1.8C58.9,85.8,60,87,60,88.9z"/>
					<path class="st0" d="M73.6,86.8c-0.9,0-1.6,0.3-1.6,1.1c0,1.8,4.4,0.9,4.4,3.7c0,1.5-1.4,2.2-2.9,2.2c-1.1,0-2.3-0.4-3-1.1
						l0.5-0.9c0.7,0.6,1.7,1,2.6,1c0.9,0,1.7-0.4,1.7-1.2c0-1.9-4.4-0.9-4.4-3.7c0-1.5,1.3-2.1,2.7-2.1c0.9,0,1.9,0.3,2.5,0.7
						l-0.4,0.9C75.2,87.1,74.4,86.8,73.6,86.8z"/>
					<path class="st0" d="M91.5,93.2c-0.6,0.4-1.2,0.6-1.8,0.6c-1.2,0-2-0.7-2-2.2V87h-1.1v-0.9h1.1v-2.1h1.2v2.1h2.5V87h-2.5v4.4
						c0,1,0.4,1.4,1,1.4c0.4,0,0.8-0.2,1.3-0.4L91.5,93.2z"/>
					<path class="st0" d="M103.6,83.6c0,0.4-0.3,0.8-0.8,0.8c-0.4,0-0.8-0.3-0.8-0.8c0-0.5,0.3-0.8,0.8-0.8
						C103.3,82.8,103.6,83.2,103.6,83.6z M103.4,85.9v7.9h-1.2v-7.9H103.4z"/>
					<path class="st0" d="M119.4,93.2c-0.6,0.4-1.2,0.6-1.8,0.6c-1.2,0-2-0.7-2-2.2V87h-1.1v-0.9h1.1v-2.1h1.2v2.1h2.5V87h-2.5v4.4
						c0,1,0.4,1.4,1,1.4c0.4,0,0.8-0.2,1.3-0.4L119.4,93.2z"/>
					<path class="st0" d="M137,85.9v7.9h-1.2V92c-0.5,1.2-1.6,1.8-3,1.8c-1.8,0-3-1.2-3-3.1v-4.9h1.2v4.6c0,1.4,0.8,2.3,2.2,2.3
						c1.6,0,2.6-1.2,2.6-2.9v-3.9H137z"/>
					<path class="st0" d="M152,86.9c-1.6,0-2.8,1.2-2.8,2.9c0,1.8,1.2,3,2.8,3c1,0,1.9-0.4,2.4-1l0.7,0.7c-0.7,0.9-1.8,1.4-3.2,1.4
						c-2.3,0-3.9-1.6-3.9-4c0-2.3,1.6-4,3.9-4c1.3,0,2.3,0.4,3,1.2l-0.6,0.8C153.7,87.2,153,86.9,152,86.9z"/>
					<path class="st0" d="M167.6,83.6c0,0.4-0.3,0.8-0.8,0.8c-0.4,0-0.8-0.3-0.8-0.8c0-0.5,0.3-0.8,0.8-0.8
						C167.2,82.8,167.6,83.2,167.6,83.6z M167.4,85.9v7.9h-1.2v-7.9H167.4z"/>
					<path class="st0" d="M186.5,89.8c0,2.4-1.7,4-4,4c-2.4,0-4-1.7-4-4c0-2.3,1.7-4,4-4C184.8,85.8,186.5,87.5,186.5,89.8z
						 M179.6,89.8c0,1.8,1.2,3,2.8,3c1.7,0,2.8-1.2,2.8-3c0-1.7-1.2-3-2.8-3C180.8,86.9,179.6,88.1,179.6,89.8z M184.6,83.1
						l-1.9,1.5h-1.1l1.8-2L184.6,83.1z"/>
					<path class="st0" d="M204.7,88.9v4.9h-1.2v-4.6c0-1.4-0.8-2.3-2.2-2.3c-1.6,0-2.5,1-2.7,2.6v4.2h-1.2v-7.9h1.2v1.7
						c0.6-1.2,1.6-1.8,3.1-1.8C203.6,85.8,204.7,87,204.7,88.9z"/>
				</g>
			</g>
		</g>
		<g>
			<path class="st0" d="M182.7,30.6c-0.2-6.7-8.2-9.2-14-10.3c-14.6-2.1-30.2-0.1-45.2,3.4c-3.6,0.9-7.3,1.9-11,3.1
				c0.6-0.7,1.2-1.5,1.5-2.3c1-2.8-0.5-5-3.3-5c-0.2,0-0.4,0-0.6,0c-2.7,0.2-5.5,2.4-6.6,5c-1,2.7,0.4,5,3.3,4.9
				c1.1,0,2.2-0.3,3.3-0.8c0.9-0.4,1.7-1,2.3-1.7c3.9-0.4,7.8-0.5,11.9-0.4c13.1,0,24.9,1.7,33.8,4.6l0,0l-4.7,6.8
				c-1.1,1.6-2.2,3.2-2.9,4.5c-0.7,1.3-1.6,2.5-2.1,3.7l-0.1,0c0.4-1.8,0.8-4.3,1-7.1c0.1-0.5,0.1-0.8,0.1-1l0.5-6.9L139.2,31
				l-9.5,17.2l-5.8,10.4l5.8,0.1l4.2,0l5.5-10.9c0.3-0.8,0.9-1.8,1.2-2.6c0.3-0.7,0.7-1.6,1-2.4c-0.1,0.7-0.3,1.7-0.4,2.6
				c-0.2,0.8-0.2,1.8-0.3,2.8l-0.8,10.6l6.2,0.1l7.3-10.6c0.6-0.9,1.3-1.9,1.9-2.9c0.4-0.8,1-1.8,1.4-2.4c-0.3,0.8-0.4,1.8-0.7,2.6
				c-0.3,0.7-0.5,1.6-0.9,2.4l-2.7,10.9l10.1,0l5-23.5c3.9,2.3,6.4,5,7,7.9c3.4-2.9,6.2-6.2,7.5-9.8c0.2-0.9,0.4-1.7,0.4-2.4
				L182.7,30.6z"/>
			<path class="st0" d="M122,63.7c-18.5,0-34.4-3.5-43.2-8.7l2.3,0l1.3-3.4l-3.5,0l-1,2.7c-3.3-2.2-5.4-4.6-5.9-7.2
				c-3.4,2.9-6.2,6.2-7.4,9.8c-0.2,0.9-0.4,1.7-0.4,2.4l0,0.3c0.1,6.7,8.2,9.1,14,10.2c14.5,2.1,30,0.1,44.9-3.4
				c3.7-1,7.6-2,11.3-3.2C130.2,63.6,126.1,63.8,122,63.7z"/>
			<polygon class="st0" points="93.5,41.3 94.8,37.8 92.3,37.8 91.2,37.8 89.9,41.3 92.3,41.3 			"/>
			<polygon class="st0" points="108.7,58.6 110.1,58.6 119.2,58.6 126.2,40 129.7,40 132,40 135.4,31 129.7,31 113.4,30.9 
				110.1,39.5 109.9,39.9 110.1,39.9 115.8,40 110.1,54.8 			"/>
			<polygon class="st0" points="88.4,45 88.6,44.7 88.4,44.7 85,44.7 83.7,48.1 87.2,48.2 			"/>
			<polygon class="st0" points="88.4,55.1 88.4,55.1 91.9,55.1 90.6,58.5 92.4,58.5 100.6,58.5 101,58.5 110.1,34.6 111.5,30.9 
				110.1,30.9 101.1,30.8 100.5,32.2 98.4,37.9 100.5,37.9 102.1,37.9 100.7,41.3 100.5,41.3 97.1,41.3 95.8,44.7 92.3,44.7 
				92.3,44.7 90.9,48.2 92.3,48.2 94.5,48.2 93.2,51.6 92.3,51.6 89.7,51.5 88.4,54.8 			"/>
		</g>
	</g>
</g>
</svg>
